# AST/ASF file generated using VICON BodyLanguage
# -----------------------------------------------
:version 1.10
:name VICON
:units
  mass 1.0
  length 0.45
  angle deg
:documentation
   .ast/.asf automatically generated from VICON data using
   VICON BodyBuilder and BodyLanguage model FoxedUp or BRILLIANT.MOD
:root
   order TX TY TZ RX RY RZ
   axis XYZ
   position 0 0 0  
   orientation 0 0 0 
:bonedata
  begin
     id 1 
     name lhipjoint
     direction 0.78388 -0.462562 0.414208 
     length 3.01181 
     axis 0 0 0  XYZ
  end
  begin
     id 2 
     name lfemur
     direction 0.34202 -0.939693 0  
     length 6.04673  
     axis 0 0 20  XYZ
    dof rx ry rz
    limits (-160.0 20.0)
           (-70.0 70.0)
           (-60.0 70.0)
  end
  begin
     id 3 
     name ltibia
     direction 0.34202 -0.939693 0   
     length 7.211   
     axis 0 0 20   XYZ
    dof rx
    limits (-10.0 170.0)
  end
  begin
     id 4 
     name lfoot
     direction 0.121887 -0.334882 0.934344   
     length 2.13567   
     axis -90 7.62852e-016 20   XYZ
    dof rx rz
    limits (-45.0 90.0)
           (-70.0 20.0)
  end
  begin
     id 5 
     name ltoes
     direction 1.53555e-011 -4.2179e-011 1   
     length 1.05957   
     axis -90 7.62852e-016 20   XYZ
    dof rx
    limits (-90.0 20.0)
  end
  begin
     id 6 
     name rhipjoint
     direction -0.769387 -0.475875 0.426129   
     length 2.92756  
     axis 0 0 0  XYZ 
  end
  begin
     id 7 
     name rfemur
     direction -0.34202 -0.939693 0   
     length 6.35468   
     axis 0 0 -20   XYZ
    dof rx ry rz
    limits (-160.0 20.0)
           (-70.0 70.0)
           (-70.0 60.0)
  end
  begin
     id 8 
     name rtibia
     direction -0.34202 -0.939693 0   
     length 7.37886   
     axis 0 0 -20   XYZ
    dof rx
    limits (-10.0 170.0)
 end
 begin
     id 9 
     name rfoot
     direction -0.101763 -0.279592 0.954711   
     length 2.21478  
     axis -90 -7.62852e-016 -20   XYZ
    dof rx rz
    limits (-45.0 90.0)
           (-20.0 70.0)
  end
  begin
     id 10 
     name rtoes
     direction -1.53494e-011 -4.21851e-011 1   
     length 1.10506   
     axis -90 -7.62852e-016 -20   XYZ
    dof rx
    limits (-90.0 20.0)
  end
  begin
     id 11 
     name lowerback
     direction 0.00747405 0.999267 0.0375481   
     length 2.13259   
     axis 0 0 0   XYZ
    dof rx ry rz
    limits (-20.0 45.0)
           (-30.0 30.0)
           (-30.0 30.0)
  end
  begin
     id 12 
     name upperback
     direction 0.00661626 0.996177 0.0871029   
     length 2.10528   
     axis 0 0 0   XYZ
    dof rx ry rz
    limits (-20.0 45.0)
           (-30.0 30.0)
           (-30.0 30.0)
  end
  begin
     id 13 
     name thorax
     direction 0.00320659 0.997679 0.0680167   
     length 2.11338   
     axis 0 0 0   XYZ
    dof rx ry rz
    limits (-20.0 45.0)
           (-30.0 30.0)
           (-30.0 30.0)
  end
  begin
     id 14 
     name lowerneck
     direction 0.0374841 0.973033 0.227602   
     length 1.42765   
     axis 0 0 0   XYZ
    dof rx ry rz
    limits (-20.0 45.0)
           (-30.0 30.0)
           (-30.0 30.0)
  end
  begin
     id 15 
     name upperneck
     direction 0.00481585 0.989155 -0.146795   
     length 1.47593   
     axis 0 0 0   XYZ
    dof rx ry rz
    limits (-20.0 45.0)
           (-30.0 30.0)
           (-30.0 30.0)
  end
  begin
     id 16
     name head
     direction -0.00292522 0.997206 -0.0746423  
     length 1.48116  
     axis 0 0 0   XYZ
    dof rx ry rz
    limits (-20.0 45.0)
           (-30.0 30.0)
           (-30.0 30.0)
  end
  begin
     id 17 
     name lclavicle
     direction 0.951444 0.305606 0.0368784  
     length 3.01855  
     axis 0 0 0   XYZ
    dof ry rz
    limits (-20.0 10.0)
           (0.0 20.0)
  end
  begin
     id 18 
     name lhumerus
     direction 1 -4.48977e-011 2.61664e-027   
     length 5.52731   
     axis 180 -30 -90   XYZ
    dof rx ry rz
    limits (-60.0 90.0)
           (-90.0 90.0)
           (-90.0 90.0)
  end
  begin
     id 19
     name lradius
     direction 1 -4.48944e-011 8.22157e-027   
     length 3.11059   
     axis 180 -30 -90   XYZ
    dof rx
    limits (-10.0 170.0)
  end
  begin
     id 20
     name lwrist
     direction 1 -4.48976e-011 1.5779e-026   
     length 1.5553   
     axis -1.15221e-014 90 90   XYZ
    dof ry
    limits (-180.0 0.0)
 end
  begin
     id 21 
     name lhand
     direction 1 -4.49025e-011 3.1558e-026   
     length 0.419626   
     axis -2.01367e-014 90 90   XYZ
    dof rx rz
    limits (-90.0 90.0)
           (-45.0 45.0)
  end
  begin
     id 22 
     name lfingers
     direction 1 -4.4904e-011 6.31161e-026   
     length 0.338313   
     axis -4.02734e-014 90 90   XYZ
    dof rx
    limits (0.0 90.0)
  end
  begin
     id 23
     name lthumb
     direction 0.707107 -6.35004e-011 0.707107   
     length 0.485752   
     axis -90 45 2.85299e-015   XYZ
    dof rx rz
    limits (-45.0 45.0)
           (-45.0 45.0)
  end
  begin
     id 24 
     name rclavicle
     direction -0.968876 0.223791 0.105816   
     length 3.04177  
     axis 0 0 0   XYZ 
    dof ry rz
    limits (-10.0 20.0)
           (-20.0 0.0)
  end
  begin
     id 25 
     name rhumerus
     direction -1 -4.48962e-011 -1.01384e-027  
     length 5.25396   
     axis 180 30 90   XYZ
    dof rx ry rz
    limits (-90.0 60.0)
           (-90.0 90.0)
           (-90.0 90.0)
  end
  begin
     id 26 
     name rradius
     direction -1 -4.48955e-011 8.88542e-027   
     length 3.10567   
     axis 180 30 90   XYZ
    dof rx
    limits (-10.0 170.0)
  end
  begin
     id 27 
     name rwrist
     direction -1 -4.48994e-011 1.5779e-026   
     length 1.55283   
     axis -1.15221e-014 -90 -90   XYZ
    dof ry
    limits (-180.0 0.0)
  end
  begin
     id 28
     name rhand
     direction -1 -4.48891e-011 3.1558e-026   
     length 0.498676   
     axis -2.01367e-014 -90 -90   XYZ
    dof rx rz
    limits (-90.0 90.0)
           (-45.0 45.0)
  end
  begin
     id 29
     name rfingers
     direction -1 -4.48972e-011 6.31161e-026   
     length 0.402045   
     axis -4.02734e-014 -90 -90   XYZ
    dof rx
    limits (0.0 90.0)
  end
  begin
     id 30
     name rthumb
     direction -0.707107 -6.34849e-011 0.707107   
     length 0.577259   
     axis -90 -45 -2.85299e-015   XYZ
    dof rx rz
    limits (-45.0 45.0)
           (-45.0 45.0)
  end
:hierarchy
  begin
    root lhipjoint rhipjoint lowerback
    lhipjoint lfemur
    lfemur ltibia
    ltibia lfoot
    lfoot ltoes
    rhipjoint rfemur
    rfemur rtibia
    rtibia rfoot
    rfoot rtoes
    lowerback upperback
    upperback thorax
    thorax lowerneck lclavicle rclavicle
    lowerneck upperneck
    upperneck head
    lclavicle lhumerus
    lhumerus lradius
    lradius lwrist
    lwrist lhand lthumb
    lhand lfingers
    rclavicle rhumerus
    rhumerus rradius
    rradius rwrist
    rwrist rhand rthumb
    rhand rfingers
  end

#!OML:ASF H:\Pregnant\Project 1\Capture day 1\Session 1\femalepreg.ASF
:FULLY-SPECIFIED
:DEGREES
18
root 5.43087 15.7362 28.2897 -184.73 -85.8992 -158.31
lowerback -26.6765 0.369389 -1.5455
upperback -6.74808 0.122186 1.68725
thorax 7.24898 -0.220334 2.75994
lowerneck -17.7066 3.22072 5.82303
upperneck 23.7547 1.43043 3.93044
head 10.63 1.55462 0.620468
rclavicle -9.24349e-015 -1.09332e-014
rhumerus 2.70853 32.0592 -93.8386
rradius 142.906
rwrist -41.2089
rhand -24.6348 -16.8935
rfingers 7.12502
rthumb 1.86427 -46.8651
lclavicle -9.24349e-015 -1.09332e-014
lhumerus 3.78855 -29.7797 93.0858
lradius 143.724
lwrist 49.243
lhand -20.3009 -1.31581
lfingers 7.12502
lthumb 6.04933 28.5778
rfemur -25.5653 20.1254 19.1311
rtibia 27.3819
rfoot -14.645 -15.8492
rtoes -3.20341
lfemur 0 0 0
ltibia 0
lfoot 0 0
ltoes 0
19
root 5.42968 15.7366 28.2867 -184.514 -85.8983 -158.493
lowerback -26.6706 0.39156 -1.62139
upperback -6.77948 0.1728 1.64554
thorax 7.2074 -0.196797 2.77332
lowerneck -17.579 3.40345 6.02507
upperneck 23.621 1.59707 4.10468
head 10.5623 1.66581 0.669689
rclavicle -2.78299e-015 1.61016e-014
rhumerus 2.48289 31.8521 -93.9672
rradius 142.896
rwrist -41.3819
rhand -24.9515 -16.9105
rfingers 7.12502
rthumb 1.55845 -46.8846
lclavicle -2.78299e-015 1.61016e-014
lhumerus 3.88443 -29.869 93.005
lradius 143.659
lwrist 49.4352
lhand -20.7071 -1.21582
lfingers 7.12502
lthumb 5.65712 28.6887
rfemur -25.6117 20.1134 19.122
rtibia 27.4047
rfoot -14.6507 -15.8444
rtoes -3.20488
lfemur 0 0 0
ltibia 0
lfoot 0 0
ltoes 0
20
root 5.42849 15.7371 28.2838 -184.236 -85.8946 -158.738
lowerback -26.6594 0.411736 -1.7057
upperback -6.81659 0.221995 1.60911
thorax 7.15669 -0.174004 2.79681
lowerneck -17.4581 3.59769 6.21445
upperneck 23.5226 1.77459 4.30272
head 10.509 1.78402 0.731306
rclavicle -2.5345e-015 4.77083e-015
rhumerus 2.26321 31.6678 -94.044
rradius 142.888
rwrist -41.5795
rhand -25.2498 -16.9657
rfingers 7.12502
rthumb 1.27029 -46.9417
lclavicle -2.5345e-015 4.77083e-015
lhumerus 3.96875 -29.9432 92.9303
lradius 143.589
lwrist 49.6
lhand -21.0669 -1.10946
lfingers 7.12502
lthumb 5.30974 28.804
rfemur -25.6582 20.1039 19.1077
rtibia 27.4269
rfoot -14.6593 -15.8373
rtoes -3.19714
lfemur 0 0 0
ltibia 0
lfoot 0 0
ltoes 0
21
root 5.42729 15.7378 28.281 -183.93 -85.8893 -159.008
lowerback -26.6463 0.431499 -1.79305
upperback -6.85786 0.270506 1.57735
thorax 7.1003 -0.151558 2.82688
lowerneck -17.3542 3.80251 6.39786
upperneck 23.4616 1.96039 4.51773
head 10.4726 1.90816 0.801769
rclavicle -1.76421e-014 -1.96797e-014
rhumerus 2.04284 31.4961 -94.0958
rradius 142.883
rwrist -41.7714
rhand -25.5286 -17.0531
rfingers 7.12502
rthumb 1.00107 -47.0305
lclavicle -1.76421e-014 -1.96797e-014
lhumerus 4.04149 -30.0065 92.8767
lradius 143.52
lwrist 49.7313
lhand -21.3809 -0.985949
lfingers 7.12502
lthumb 5.00659 28.9349
rfemur -25.7062 20.0947 19.0898
rtibia 27.4459
rfoot -14.6692 -15.8279
rtoes -3.187
lfemur 0 0 0
ltibia 0
lfoot 0 0
ltoes 0
22
root 5.42601 15.7388 28.2783 -183.617 -85.8811 -159.284
lowerback -26.6309 0.45157 -1.88177
upperback -6.90246 0.318976 1.54941
thorax 7.03894 -0.129096 2.86184
lowerneck -17.2687 4.01827 6.58745
upperneck 23.4373 2.15362 4.74023
head 10.4536 2.03792 0.875803
rclavicle 4.96962e-015 -7.95139e-016
rhumerus 1.81667 31.3349 -94.1342
rradius 142.884
rwrist -41.9381
rhand -25.7735 -17.1527
rfingers 7.12502
rthumb 0.764523 -47.1311
lclavicle 4.96962e-015 -7.95139e-016
lhumerus 4.10018 -30.0606 92.838
lradius 143.449
lwrist 49.8229
lhand -21.6315 -0.870539
lfingers 7.12502
lthumb 4.76457 29.0559
rfemur -25.7523 20.0874 19.0702
rtibia 27.4583
rfoot -14.6799 -15.8166
rtoes -3.16608
lfemur 0 0 0
ltibia 0
lfoot 0 0
ltoes 0
